<?xml version="1.0" encoding="utf-8"?>
<!-- Generator: Adobe Illustrator 16.0.0, SVG Export Plug-In . SVG Version: 6.00 Build 0)  -->
<!DOCTYPE svg PUBLIC "-//W3C//DTD SVG 1.1//EN" "http://www.w3.org/Graphics/SVG/1.1/DTD/svg11.dtd">
<svg version="1.1" id="Layer_1" xmlns="http://www.w3.org/2000/svg" xmlns:xlink="http://www.w3.org/1999/xlink" x="0px" y="0px"
	 width="1437.746px" height="942px" viewBox="0 -33 1437.746 942" enable-background="new 0 -33 1437.746 942" xml:space="preserve"
	>
<g id="Layer_1_1_">
	<g id="Layer_3_2_">
		<rect x="0" y="-33" fill="#113A7C" width="1437.747" height="942"/>
	</g>
</g>
<g id="Layer_2_copy_3">
	<path opacity="0.4" fill="#1E3C68" enable-background="new    " d="M1364.148,719.746c-15.363-7.849-32.603-12.254-50.818-12.254
		c-37.835,0-71.465,18.999-92.815,48.448c-24.129-20.17-54.627-32.217-87.791-32.217c-61.376,0-113.623,41.246-133.251,98.917
		c-16.672-15.312-38.433-24.604-62.264-24.604c-43.598,0-80.301,31.036-91.451,73.313c-1.161-0.055-2.325-0.095-3.497-0.095
		c-5.008,0-9.903,0.517-14.65,1.463c-20.254-34.92-56.714-58.221-98.333-58.221c-31.034,0-59.198,12.959-79.917,34.026
		c-14.329-20.146-37.143-33.181-62.842-33.181c-23.527,0-44.624,10.938-59.021,28.241c-16.356-56.017-65.764-96.72-124.183-96.72
		c-31.253,0-59.927,11.655-82.343,31.067c-13.482-9.96-29.883-15.823-47.589-15.823c-2.408,0-4.785,0.131-7.14,0.342
		c-12.931-30.738-42.074-52.185-75.98-52.185c-28.398,0-53.457,15.052-68.451,37.996c-6.04-30.232-31.441-52.931-61.871-52.931
		c-12.89,0-24.874,4.084-34.87,11.077c-7.119-9.706-15.578-18.256-25.078-25.357V909h1437.754l-0.002-258.881
		C1407.702,666.253,1382.385,690.412,1364.148,719.746z"/>
	<path opacity="0.2" fill="#FFFFFF" enable-background="new    " d="M-0.006,209.591c7.867-1.906,16.057-2.915,24.471-2.915
		c47.957,0,88.678,32.709,103.247,78.151c3.721-0.497,7.515-0.752,11.364-0.752c29.023,0,54.84,14.485,71.333,36.973
		c7.696-5.381,16.921-8.524,26.845-8.524c23.425,0,42.98,17.471,47.629,40.745c11.542-17.665,30.834-29.249,52.696-29.249
		c26.1,0,48.537,16.51,58.491,40.173c1.814-0.163,3.643-0.264,5.497-0.264c13.629,0,26.255,4.513,36.636,12.185
		c17.256-14.946,39.33-23.918,63.39-23.918c44.971,0,83.008,31.336,95.599,74.459c11.083-13.322,27.325-21.741,45.437-21.741
		c19.783,0,37.346,10.033,48.379,25.541c15.948-16.218,37.631-26.194,61.522-26.194c32.04,0,60.108,17.938,75.699,44.821
		c3.654-0.726,7.424-1.126,11.278-1.126c0.902,0,1.799,0.03,2.692,0.072c8.583-32.548,36.84-56.439,70.401-56.439
		c18.348,0,35.101,7.151,47.936,18.94c15.11-44.395,55.331-76.149,102.579-76.149c25.531,0,49.013,9.273,67.586,24.802
		c16.437-22.671,42.326-37.298,71.451-37.298c14.022,0,27.294,3.391,39.123,9.435c24.214-38.948,64.608-66.083,112.001-70.02
		c18.49-1.535,36.451,0.603,53.248,5.817c8.061-9.793,18.904-16.954,31.223-20.142l-0.001-132.732
		c-12.322,3.188-23.167,10.349-31.229,20.144c-16.798-5.214-34.759-7.354-53.251-5.816c-47.39,3.937-87.786,31.072-111.998,70.02
		c-11.829-6.044-25.102-9.434-39.123-9.434c-29.128,0-55.016,14.625-71.452,37.296c-18.574-15.528-42.056-24.802-67.587-24.802
		c-47.247,0-87.468,31.753-102.578,76.15c-12.834-11.789-29.588-18.941-47.936-18.941c-33.561,0-61.818,23.892-70.402,56.44
		c-0.894-0.042-1.788-0.072-2.691-0.072c-3.857,0-7.625,0.4-11.279,1.126c-15.59-26.882-43.661-44.82-75.699-44.82
		c-23.892,0-45.574,9.977-61.522,26.194c-11.032-15.508-28.596-25.541-48.38-25.541c-18.111,0-34.353,8.42-45.435,21.741
		c-12.592-43.12-50.629-74.458-95.599-74.458c-24.061,0-46.136,8.971-63.39,23.917c-10.379-7.67-23.006-12.185-36.637-12.185
		c-1.853,0-3.682,0.102-5.496,0.264c-9.954-23.663-32.391-40.172-58.492-40.172c-21.862,0-41.154,11.583-52.695,29.249
		c-4.65-23.274-24.204-40.745-47.63-40.745c-9.922,0-19.148,3.142-26.845,8.524c-16.492-22.489-42.31-36.972-71.333-36.972
		c-3.848,0-7.642,0.256-11.365,0.75c-14.568-45.442-55.289-78.151-103.247-78.151c-8.413,0-16.604,1.009-24.47,2.915l0.005,451.943
		c0,0,0.002,0,0.003-0.002L-0.006,209.591L-0.006,209.591z"/>
	<path opacity="0.3" fill="#FFFFFF" enable-background="new    " d="M1406.522,267.116c-16.796-5.214-34.757-7.353-53.248-5.816
		c-47.392,3.936-87.787,31.073-112,70.019c-11.828-6.044-25.101-9.434-39.123-9.434c-29.126,0-55.017,14.625-71.451,37.296
		c-18.573-15.53-42.055-24.802-67.587-24.802c-47.247,0-87.469,31.753-102.579,76.149c-12.834-11.789-29.587-18.941-47.935-18.941
		c-33.562,0-61.817,23.892-70.402,56.439c-0.893-0.042-1.79-0.072-2.692-0.072c-3.856,0-7.624,0.4-11.278,1.126
		c-15.591-26.882-43.66-44.821-75.699-44.821c-23.892,0-45.573,9.977-61.522,26.194c-11.031-15.509-28.596-25.541-48.379-25.541
		c-18.112,0-34.354,8.42-45.435,21.74c-12.593-43.121-50.629-74.458-95.6-74.458c-24.062,0-46.134,8.972-63.39,23.918
		c-10.379-7.67-23.005-12.185-36.636-12.185c-1.853,0-3.682,0.102-5.497,0.265c-9.954-23.664-32.39-40.173-58.491-40.173
		c-21.862,0-41.154,11.583-52.695,29.248c-4.649-23.273-24.204-40.745-47.629-40.745c-9.923,0-19.149,3.143-26.845,8.524
		c-16.493-22.489-42.31-36.971-71.333-36.971c-3.849,0-7.644,0.254-11.364,0.75c-14.568-45.442-55.291-78.151-103.246-78.151
		c-8.414,0-16.605,1.009-24.471,2.915v319.212c4.584-0.903,9.309-1.383,14.139-1.383c11.928,0,23.221,2.881,33.284,8.021
		c20.601-33.133,54.966-56.218,95.282-59.566c15.733-1.309,31.014,0.514,45.302,4.947c6.86-8.331,16.083-14.424,26.565-17.135
		v-0.006c6.693-1.62,13.66-2.479,20.82-2.479c40.799,0,75.442,27.826,87.837,66.486c3.166-0.42,6.394-0.638,9.668-0.638
		c24.692,0,46.655,12.321,60.687,31.456c6.548-4.581,14.396-7.254,22.838-7.254c19.929,0,36.564,14.864,40.521,34.667
		c9.819-15.029,26.232-24.882,44.831-24.882c22.207,0,41.294,14.046,49.762,34.177c1.542-0.14,3.099-0.229,4.676-0.229
		c11.596,0,22.337,3.841,31.167,10.365c14.681-12.714,33.462-20.347,53.932-20.347c38.259,0,70.619,26.66,81.331,63.347
		c9.429-11.334,23.246-18.497,38.656-18.497c16.831,0,31.772,8.536,41.157,21.729c13.567-13.797,32.015-22.283,52.341-22.283
		c27.257,0,51.137,15.26,64.4,38.13c3.11-0.619,6.315-0.958,9.596-0.958c0.768,0,1.532,0.025,2.289,0.061
		c7.303-27.688,31.345-48.016,59.896-48.016c15.608,0,29.861,6.087,40.778,16.113c12.856-37.77,47.074-64.783,87.271-64.783
		c21.721,0,41.695,7.888,57.499,21.101c13.981-19.288,36.008-31.729,60.788-31.729c11.928,0,23.221,2.881,33.282,8.021
		c20.602-33.133,54.967-56.219,95.284-59.566c15.732-1.309,31.013,0.512,45.303,4.946c6.858-8.331,16.086-14.424,26.568-17.136
		l0.002,154.634c0.001-0.001,0.001-0.001,0.002-0.003l-0.004-403.141C1425.426,250.163,1414.583,257.323,1406.522,267.116z"/>
	<path opacity="0.4" fill="#FFFFFF" enable-background="new    " d="M25.071,706.408c9.996-6.993,21.98-11.077,34.87-11.077
		c30.429,0,55.83,22.698,61.87,52.931c14.992-22.944,40.053-37.996,68.452-37.996c33.904,0,63.05,21.449,75.98,52.185
		c2.355-0.211,4.732-0.342,7.14-0.342c17.705,0,34.105,5.861,47.589,15.823c22.416-19.412,51.09-31.067,82.343-31.067
		c58.417,0,107.825,40.707,124.183,96.72c14.396-17.306,35.494-28.241,59.021-28.241c25.7,0,48.512,13.034,62.843,33.181
		c20.718-21.067,48.882-34.026,79.917-34.026c41.619,0,78.079,23.301,98.333,58.221c4.747-0.946,9.643-1.463,14.65-1.463
		c1.171,0,2.336,0.04,3.497,0.095c11.151-42.277,47.854-73.313,91.451-73.313c23.831,0,45.593,9.293,62.264,24.604
		c19.627-57.669,71.875-98.917,133.25-98.917c33.164,0,63.664,12.047,87.792,32.217c21.351-29.447,54.98-48.448,92.814-48.448
		c18.216,0,35.455,4.405,50.818,12.254c18.236-29.334,43.554-53.493,73.6-69.627l-0.002-154.635
		c-10.483,2.713-19.709,8.806-26.567,17.138c-14.291-4.435-29.571-6.255-45.304-4.947c-40.318,3.349-74.684,26.435-95.283,59.567
		c-10.063-5.141-21.354-8.023-33.283-8.023c-24.779,0-46.807,12.442-60.788,31.731c-15.804-13.211-35.778-21.102-57.499-21.102
		c-40.198,0-74.414,27.015-87.271,64.784c-10.916-10.026-25.17-16.113-40.779-16.113c-28.551,0-52.594,20.327-59.896,48.016
		c-0.757-0.034-1.521-0.061-2.288-0.061c-3.281,0-6.485,0.339-9.597,0.958c-13.264-22.871-37.142-38.13-64.4-38.13
		c-20.326,0-38.771,8.488-52.34,22.284c-9.387-13.193-24.327-21.729-41.157-21.729c-15.41,0-29.229,7.162-38.656,18.496
		c-10.713-36.686-43.072-63.347-81.332-63.347c-20.469,0-39.25,7.633-53.93,20.347c-8.831-6.524-19.573-10.364-31.167-10.364
		c-1.577,0-3.133,0.087-4.676,0.228c-8.469-20.131-27.557-34.177-49.763-34.177c-18.597,0-35.011,9.853-44.83,24.881
		c-3.957-19.802-20.592-34.666-40.521-34.666c-8.443,0-16.291,2.673-22.838,7.253c-14.031-19.134-35.994-31.455-60.687-31.455
		c-3.274,0-6.502,0.218-9.668,0.638c-12.394-38.66-47.038-66.486-87.837-66.486c-7.158,0-14.125,0.857-20.818,2.48v0.004
		c-10.481,2.712-19.706,8.805-26.564,17.136c-14.29-4.434-29.569-6.255-45.302-4.947c-40.318,3.349-74.685,26.434-95.284,59.566
		c-10.063-5.141-21.354-8.021-33.284-8.021c-4.832,0-9.557,0.479-14.139,1.383v152.246C9.493,688.152,17.953,696.702,25.071,706.408
		z"/>
	<path opacity="0.2" fill="#FFFFFF" enable-background="new    " d="M1364.148,719.746c-15.363-7.849-32.603-12.254-50.818-12.254
		c-37.835,0-71.465,18.999-92.815,48.448c-24.129-20.17-54.627-32.217-87.791-32.217c-61.376,0-113.623,41.246-133.251,98.917
		c-16.672-15.312-38.433-24.604-62.264-24.604c-43.598,0-80.301,31.036-91.451,73.313c-1.161-0.055-2.325-0.095-3.497-0.095
		c-5.008,0-9.903,0.517-14.65,1.463c-20.254-34.92-56.714-58.221-98.333-58.221c-31.034,0-59.198,12.959-79.917,34.026
		c-14.329-20.146-37.143-33.181-62.842-33.181c-23.527,0-44.624,10.938-59.021,28.241c-16.356-56.017-65.764-96.72-124.183-96.72
		c-31.253,0-59.927,11.655-82.343,31.067c-13.482-9.96-29.883-15.823-47.589-15.823c-2.408,0-4.785,0.131-7.14,0.342
		c-12.931-30.738-42.074-52.185-75.98-52.185c-28.398,0-53.457,15.052-68.451,37.996c-6.04-30.232-31.441-52.931-61.871-52.931
		c-12.89,0-24.874,4.084-34.87,11.077c-7.119-9.706-15.578-18.256-25.078-25.357V909h1437.754l-0.002-258.881
		C1407.702,666.253,1382.385,690.412,1364.148,719.746z"/>
</g>
</svg>
