<?xml version="1.0" encoding="utf-8"?>
<!-- Generator: Adobe Illustrator 16.0.0, SVG Export Plug-In . SVG Version: 6.00 Build 0)  -->
<!DOCTYPE svg PUBLIC "-//W3C//DTD SVG 1.1//EN" "http://www.w3.org/Graphics/SVG/1.1/DTD/svg11.dtd">
<svg version="1.1" id="Layer_1" xmlns="http://www.w3.org/2000/svg" xmlns:xlink="http://www.w3.org/1999/xlink" x="0px" y="0px"
	 width="1463.984px" height="909px" viewBox="0 0 1463.984 909" enable-background="new 0 0 1463.984 909" xml:space="preserve">
<g id="Layer_3">
	<rect fill="#2792C1" width="1464" height="909"/>
</g>
<g id="Layer_3_copy">
	<rect fill="#D34B1C" width="1464" height="909"/>
</g>
<g id="Layer_4">
	<path opacity="0.15" fill="#FFFFFF" enable-background="new    " d="M1464,472c0,0-10.143,3.022-28.578,7.771
		c18.505,8.058,28.4,13.677,28.578,13.777V472z"/>
	<path opacity="0.15" fill="#FFFFFF" enable-background="new    " d="M0,500.539c-0.011,0.006-0.028,0.016-0.028,0.016l0.002,41.998
		c0.001,0,0.016-0.008,0.025-0.014L0,500.539L0,500.539z"/>
	<path opacity="0.15" fill="#FFFFFF" enable-background="new    " d="M622.269,523.388c31.304-3.424,62.623-8.114,93.649-14.31
		c-30.593-7.213-60.792-15.97-90.284-26.506c-270.563-96.66-483.58-40.256-575.854-4.512c20.688,5.008,47.208,10.994,78.343,17.11
		C238.592,466.997,413.095,449.509,622.269,523.388z"/>
	<path opacity="0.15" fill="#FFFFFF" enable-background="new    " d="M622.269,523.388
		c-209.174-73.878-383.677-56.391-494.146-28.216C247.385,518.6,434.508,543.921,622.269,523.388z"/>
	<path opacity="0.15" fill="#FFFFFF" enable-background="new    " d="M622.269,523.388
		c-209.174-73.878-383.677-56.391-494.146-28.216C247.385,518.6,434.508,543.921,622.269,523.388z"/>
	<path opacity="0.15" fill="#FFFFFF" enable-background="new    " d="M0,916v-7V542.539c-0.01,0.006-0.024,0.014-0.025,0.014L0,916
		L0,916z"/>
	<path opacity="0.15" fill="#FFFFFF" enable-background="new    " d="M0,916v-7V542.539c-0.01,0.006-0.024,0.014-0.025,0.014L0,916
		L0,916z"/>
	<path opacity="0.15" fill="#FFFFFF" enable-background="new    " d="M49.78,478.063C18.035,470.378,0,465,0,465v18
		c0,0,8.066,2.404,22.877,6.289C30.191,485.993,39.188,482.164,49.78,478.063z"/>
	<path opacity="0.15" fill="#FFFFFF" enable-background="new    " d="M838.357,493.572c264.45-94.477,473.919-42.728,569.405-6.963
		c10.609-2.523,19.874-4.835,27.658-6.84c-77.024-33.537-303.073-109.228-597.063-4.197c-39.784,14.213-80.849,25.203-122.44,33.506
		c13.707,3.23,27.492,6.16,41.331,8.787C784.705,511.093,811.817,503.054,838.357,493.572z"/>
	<polygon opacity="0.15" fill="#FFFFFF" enable-background="new    " points="1464,511.554 1464,493.555 1464,493.549 1464,511.549 
			"/>
	<path opacity="0.15" fill="#FFFFFF" enable-background="new    " d="M1464,511.549v-18c-0.178-0.102-10.073-5.721-28.578-13.777
		c-7.784,2.004-17.049,4.314-27.658,6.839C1443.934,500.156,1463.748,511.405,1464,511.549z"/>
	<path opacity="0.15" fill="#FFFFFF" enable-background="new    " d="M1464,511.549v-18c-0.178-0.102-10.073-5.721-28.578-13.777
		c-7.784,2.004-17.049,4.314-27.658,6.839C1443.934,500.156,1463.748,511.405,1464,511.549z"/>
	<path opacity="0.15" fill="#FFFFFF" enable-background="new    " d="M625.633,524.572c11.848,4.231,23.81,8.173,35.862,11.848
		c32.149-4.655,64.179-10.766,95.752-18.555c-13.839-2.627-27.624-5.557-41.331-8.787c-31.026,6.194-62.346,10.886-93.649,14.31
		C623.391,523.784,624.509,524.171,625.633,524.572z"/>
	<path opacity="0.15" fill="#FFFFFF" enable-background="new    " d="M625.633,524.572c11.848,4.231,23.81,8.173,35.862,11.848
		c32.149-4.655,64.179-10.766,95.752-18.555c-13.839-2.627-27.624-5.557-41.331-8.787c-31.026,6.194-62.346,10.886-93.649,14.31
		C623.391,523.784,624.509,524.171,625.633,524.572z"/>
	<path opacity="0.15" fill="#FFFFFF" enable-background="new    " d="M91.353,505.581c11.313-3.53,23.583-7.046,36.771-10.409
		c-31.136-6.116-57.656-12.104-78.343-17.109c-10.591,4.103-19.588,7.932-26.902,11.228
		C38.599,493.413,61.938,499.207,91.353,505.581z"/>
	<path opacity="0.15" fill="#FFFFFF" enable-background="new    " d="M91.353,505.581c11.313-3.53,23.583-7.046,36.771-10.409
		c-31.136-6.116-57.656-12.104-78.343-17.109c-10.591,4.103-19.588,7.932-26.902,11.228
		C38.599,493.413,61.938,499.207,91.353,505.581z"/>
	<path opacity="0.15" fill="#FFFFFF" enable-background="new    " d="M661.496,536.42c-12.054-3.675-24.016-7.615-35.862-11.848
		c-1.124-0.401-2.243-0.788-3.365-1.186c-187.761,20.533-374.884-4.788-494.146-28.216c-13.188,3.363-25.458,6.879-36.771,10.409
		C213.474,532.042,440.3,568.451,661.496,536.42z"/>
	<path opacity="0.15" fill="#FFFFFF" enable-background="new    " d="M661.496,536.42c-12.054-3.675-24.016-7.615-35.862-11.848
		c-1.124-0.401-2.243-0.788-3.365-1.186c-187.761,20.533-374.884-4.788-494.146-28.216c-13.188,3.363-25.458,6.879-36.771,10.409
		C213.474,532.042,440.3,568.451,661.496,536.42z"/>
	<path opacity="0.15" fill="#FFFFFF" enable-background="new    " d="M661.496,536.42c-12.054-3.675-24.016-7.615-35.862-11.848
		c-1.124-0.401-2.243-0.788-3.365-1.186c-187.761,20.533-374.884-4.788-494.146-28.216c-13.188,3.363-25.458,6.879-36.771,10.409
		C213.474,532.042,440.3,568.451,661.496,536.42z"/>
	<polygon opacity="0.15" fill="#FFFFFF" enable-background="new    " points="1464.01,511.554 1464,662.811 1464,680.811 
		1464.011,511.555 	"/>
	<path opacity="0.15" fill="#FFFFFF" enable-background="new    " d="M1407.764,486.609
		c-95.486-35.765-304.955-87.514-569.405,6.963c-26.541,9.48-53.653,17.521-81.109,24.293
		C1015.46,566.893,1291.843,514.177,1407.764,486.609z"/>
	<path opacity="0.15" fill="#FFFFFF" enable-background="new    " d="M1407.764,486.609
		c-95.486-35.765-304.955-87.514-569.405,6.963c-26.541,9.48-53.653,17.521-81.109,24.293
		C1015.46,566.893,1291.843,514.177,1407.764,486.609z"/>
	<polygon opacity="0.15" fill="#FFFFFF" enable-background="new    " points="1464,514 1464,662.811 1464.01,511.554 1464,511.549 	
		"/>
	<polygon opacity="0.15" fill="#FFFFFF" enable-background="new    " points="1464,514 1464,662.811 1464.01,511.554 1464,511.549 	
		"/>
	<path opacity="0.15" fill="#FFFFFF" enable-background="new    " d="M0,483v17.539c0.403-0.229,8.28-4.673,22.877-11.25
		C8.066,485.404,0,483,0,483z"/>
	<path opacity="0.15" fill="#FFFFFF" enable-background="new    " d="M0,483v17.539c0.403-0.229,8.28-4.673,22.877-11.25
		C8.066,485.404,0,483,0,483z"/>
	<path opacity="0.15" fill="#FFFFFF" enable-background="new    " d="M91.353,505.581c-29.415-6.374-52.753-12.168-68.475-16.292
		C8.28,495.866,0.403,500.311,0,500.539v42C0.832,542.067,33.507,523.633,91.353,505.581z"/>
	<path opacity="0.15" fill="#FFFFFF" enable-background="new    " d="M91.353,505.581c-29.415-6.374-52.753-12.168-68.475-16.292
		C8.28,495.866,0.403,500.311,0,500.539v42C0.832,542.067,33.507,523.633,91.353,505.581z"/>
	<path opacity="0.15" fill="#FFFFFF" enable-background="new    " d="M91.353,505.581c-29.415-6.374-52.753-12.168-68.475-16.292
		C8.28,495.866,0.403,500.311,0,500.539v42C0.832,542.067,33.507,523.633,91.353,505.581z"/>
	<path opacity="0.15" fill="#FFFFFF" enable-background="new    " d="M1464,514v-2.451c-0.252-0.144-20.066-11.393-56.236-24.938
		c-115.921,27.566-392.304,80.282-650.516,31.256c-31.573,7.789-63.602,13.898-95.752,18.555C1021.091,646.059,1464,514,1464,514z"
		/>
	<path opacity="0.15" fill="#FFFFFF" enable-background="new    " d="M1464,514v-2.451c-0.252-0.144-20.066-11.393-56.236-24.938
		c-115.921,27.566-392.304,80.282-650.516,31.256c-31.573,7.789-63.602,13.898-95.752,18.555C1021.091,646.059,1464,514,1464,514z"
		/>
	<path opacity="0.15" fill="#FFFFFF" enable-background="new    " d="M1464,514v-2.451c-0.252-0.144-20.066-11.393-56.236-24.938
		c-115.921,27.566-392.304,80.282-650.516,31.256c-31.573,7.789-63.602,13.898-95.752,18.555C1021.091,646.059,1464,514,1464,514z"
		/>
	<path opacity="0.15" fill="#FFFFFF" enable-background="new    " d="M661.496,536.42c-221.196,32.031-448.022-4.378-570.143-30.839
		C33.507,523.633,0.832,542.067,0,542.539V909h1463.984L1464,662.811V514C1464,514,1021.091,646.059,661.496,536.42z"/>
	<path opacity="0.15" fill="#FFFFFF" enable-background="new    " d="M661.496,536.42c-221.196,32.031-448.022-4.378-570.143-30.839
		C33.507,523.633,0.832,542.067,0,542.539V909h1463.984L1464,662.811V514C1464,514,1021.091,646.059,661.496,536.42z"/>
	<path opacity="0.15" fill="#FFFFFF" enable-background="new    " d="M661.496,536.42c-221.196,32.031-448.022-4.378-570.143-30.839
		C33.507,523.633,0.832,542.067,0,542.539V909h1463.984L1464,662.811V514C1464,514,1021.091,646.059,661.496,536.42z"/>
	<path opacity="0.15" fill="#FFFFFF" enable-background="new    " d="M661.496,536.42c-221.196,32.031-448.022-4.378-570.143-30.839
		C33.507,523.633,0.832,542.067,0,542.539V909h1463.984L1464,662.811V514C1464,514,1021.091,646.059,661.496,536.42z"/>
</g>
<circle fill="#FFA300" cx="900.49" cy="120.744" r="120.744"/>
<circle fill="#FFCE00" cx="903.403" cy="117.105" r="118.383"/>
<path opacity="0.6" d="M0,763.325c0,0,284.425,137.97,689.757,36.785c422.807-105.546,774.228,17.54,774.228,17.54V909H0V763.325z"
	/>
<path opacity="0.6" d="M0,839.569c0,0,305.029,99.681,739.725,4.502c453.438-99.282,724.26,16.499,724.26,16.499V909H0V839.569z"/>
</svg>
